<svg width="12" height="12" viewBox="0 0 12 12" fill="none" xmlns="http://www.w3.org/2000/svg">
<path d="M4.3202 2.87999H7.2002M2.3042 2.30398V9.21598C2.3042 9.85222 2.81997 10.368 3.4562 10.368H8.0642C8.70043 10.368 9.2162 9.85222 9.2162 9.21598V2.30398C9.2162 1.66775 8.70043 1.15199 8.0642 1.15198L3.4562 1.15198C2.81997 1.15198 2.3042 1.66774 2.3042 2.30398Z" stroke="#2E3338" stroke-width="0.96" stroke-linecap="round" stroke-linejoin="round"/>
<rect x="3.81546" y="4.04281" width="7.2571" height="4.72539" rx="0.6534" fill="white"/>
<rect x="3.81546" y="4.04281" width="7.2571" height="4.72539" rx="0.6534" stroke="#2E3338" stroke-width="0.4356"/>
<path d="M4.46875 8.11488L5.58214 4.69629H6.29304L7.40644 8.11488H6.76872L6.246 6.29581C6.19024 6.1146 6.13623 5.92817 6.08395 5.7365C6.03517 5.54484 5.98638 5.35492 5.93759 5.16674H5.91668C5.87138 5.3584 5.82259 5.55007 5.77032 5.74173C5.72154 5.92991 5.66926 6.1146 5.61351 6.29581L5.08556 8.11488H4.46875ZM5.12738 7.18966V6.71399H6.73735V7.18966H5.12738Z" fill="#2E3338"/>
<path d="M7.84229 8.11488V4.69629H8.75705C9.10553 4.69629 9.40348 4.75902 9.6509 4.88447C9.89832 5.00992 10.0882 5.1981 10.2207 5.44901C10.3531 5.69991 10.4193 6.01354 10.4193 6.3899C10.4193 6.76626 10.3531 7.08338 10.2207 7.34125C10.0917 7.59564 9.90529 7.78905 9.66135 7.92147C9.41741 8.05041 9.12643 8.11488 8.78841 8.11488H7.84229ZM8.44864 7.62352H8.71523C8.94522 7.62352 9.14037 7.57996 9.30067 7.49284C9.46446 7.40224 9.58817 7.26633 9.67181 7.08512C9.75544 6.90391 9.79726 6.67217 9.79726 6.3899C9.79726 6.11112 9.75544 5.88286 9.67181 5.70514C9.58817 5.52741 9.46446 5.39673 9.30067 5.3131C9.14037 5.22946 8.94522 5.18765 8.71523 5.18765H8.44864V7.62352Z" fill="#2E3338"/>
</svg>
